<svg width="48" height="48" viewBox="0 0 48 48" xmlns="http://www.w3.org/2000/svg"><g opacity="0" transform="matrix(6.123233995736766e-17, 1, -1, 6.123233995736766e-17, 48, 0)"><path fill="#ffffff" stroke="none" shape-rendering="optimizeSpeed" d="M0 0L48 0 48 48 0 48Z"/></g><path fill="#231f20" stroke="none" shape-rendering="optimizeSpeed" d="M27.66 38C27.05 38 26.48 37.73 26.1 37.26L16.44 25.26C15.83 24.52 15.83 23.46 16.44 22.72L26.44 10.72C27.15 9.87 28.41 9.75 29.26 10.46 30.11 11.17 30.23 12.43 29.52 13.28L20.58 24 29.22 34.72C29.72 35.32 29.82 36.15 29.49 36.86 29.15 37.56 28.44 38.01 27.66 38Z"/><path fill="none" stroke="none" d="M0 0L48 0 48 48 0 48Z"/></svg>